{
  "accessors": [
    {
      "bufferView": 2,
      "componentType": 5126,
      "count": 1829,
      "max": [
        2.003390073776245,
        5.905778408050537,
        2.003390073776245
      ],
      "min": [
        -2.003390073776245,
        -0.004839897155761719,
        -2.003390073776245
      ],
      "type": "VEC3"
    },
    {
      "bufferView": 2,
      "byteOffset": 21948,
      "componentType": 5126,
      "count": 1829,
      "type": "VEC3"
    },
    {
      "bufferView": 1,
      "componentType": 5126,
      "count": 1829,
      "type": "VEC2"
    },
    {
      "bufferView": 0,
      "componentType": 5125,
      "count": 8676,
      "type": "SCALAR"
    },
    {
      "bufferView": 2,
      "byteOffset": 43896,
      "componentType": 5126,
      "count": 806,
      "max": [
        1.0409774780273438,
        5.339435577392578,
        1.0450011491775513
      ],
      "min": [
        -1.0489851236343384,
        -0.18969011306762695,
        -1.0449620485305786
      ],
      "type": "VEC3"
    },
    {
      "bufferView": 2,
      "byteOffset": 53568,
      "componentType": 5126,
      "count": 806,
      "type": "VEC3"
    },
    {
      "bufferView": 1,
      "byteOffset": 14632,
      "componentType": 5126,
      "count": 806,
      "type": "VEC2"
    },
    {
      "bufferView": 0,
      "byteOffset": 34704,
      "componentType": 5125,
      "count": 4200,
      "type": "SCALAR"
    },
    {
      "bufferView": 2,
      "byteOffset": 63240,
      "componentType": 5126,
      "count": 1026,
      "max": [
        0.9425374269485474,
        4.686452865600586,
        0.9425174593925476
      ],
      "min": [
        -0.9425371885299683,
        -0.5708551406860352,
        -0.9425570368766785
      ],
      "type": "VEC3"
    },
    {
      "bufferView": 2,
      "byteOffset": 75552,
      "componentType": 5126,
      "count": 1026,
      "type": "VEC3"
    },
    {
      "bufferView": 1,
      "byteOffset": 21080,
      "componentType": 5126,
      "count": 1026,
      "type": "VEC2"
    },
    {
      "bufferView": 0,
      "byteOffset": 51504,
      "componentType": 5125,
      "count": 5304,
      "type": "SCALAR"
    },
    {
      "bufferView": 2,
      "byteOffset": 87864,
      "componentType": 5126,
      "count": 1551,
      "max": [
        1.8611936569213867,
        2.2700023651123047,
        0.8640865087509155
      ],
      "min": [
        -1.8611936569213867,
        -0.4751005172729492,
        -0.8640866279602051
      ],
      "type": "VEC3"
    },
    {
      "bufferView": 2,
      "byteOffset": 106476,
      "componentType": 5126,
      "count": 1551,
      "type": "VEC3"
    },
    {
      "bufferView": 1,
      "byteOffset": 29288,
      "componentType": 5126,
      "count": 1551,
      "type": "VEC2"
    },
    {
      "bufferView": 0,
      "byteOffset": 72720,
      "componentType": 5125,
      "count": 9180,
      "type": "SCALAR"
    },
    {
      "bufferView": 2,
      "byteOffset": 125088,
      "componentType": 5126,
      "count": 586,
      "max": [
        0.5691165328025818,
        4.393339157104492,
        0.2076955884695053
      ],
      "min": [
        -3.1997640132904053,
        -0.569117546081543,
        -0.20769554376602173
      ],
      "type": "VEC3"
    },
    {
      "bufferView": 2,
      "byteOffset": 132120,
      "componentType": 5126,
      "count": 586,
      "type": "VEC3"
    },
    {
      "bufferView": 1,
      "byteOffset": 41696,
      "componentType": 5126,
      "count": 586,
      "type": "VEC2"
    },
    {
      "bufferView": 0,
      "byteOffset": 109440,
      "componentType": 5125,
      "count": 2196,
      "type": "SCALAR"
    },
    {
      "bufferView": 2,
      "byteOffset": 139152,
      "componentType": 5126,
      "count": 587,
      "max": [
        3.1997640132904053,
        4.393339157104492,
        0.2076956182718277
      ],
      "min": [
        -0.5691164135932922,
        -0.5691165924072266,
        -0.2076955884695053
      ],
      "type": "VEC3"
    },
    {
      "bufferView": 2,
      "byteOffset": 146196,
      "componentType": 5126,
      "count": 587,
      "type": "VEC3"
    },
    {
      "bufferView": 1,
      "byteOffset": 46384,
      "componentType": 5126,
      "count": 587,
      "type": "VEC2"
    },
    {
      "bufferView": 0,
      "byteOffset": 118224,
      "componentType": 5125,
      "count": 2196,
      "type": "SCALAR"
    }
  ],
  "asset": {
    "generator": "fab-model-conversion",
    "version": "2.0"
  },
  "bufferViews": [
    {
      "buffer": 0,
      "byteLength": 127008,
      "target": 34963
    },
    {
      "buffer": 0,
      "byteLength": 51080,
      "byteOffset": 127008,
      "byteStride": 8,
      "target": 34962
    },
    {
      "buffer": 0,
      "byteLength": 153240,
      "byteOffset": 178088,
      "byteStride": 12,
      "target": 34962
    }
  ],
  "buffers": [
    {
      "byteLength": 331328,
      "uri": "scene.bin"
    }
  ],
  "materials": [
    {
      "doubleSided": true,
      "name": "Scene_-_Root",
      "pbrMetallicRoughness": {
        "metallicFactor": 0.0,
        "roughnessFactor": 0.6
      }
    }
  ],
  "meshes": [
    {
      "name": "Object_0",
      "primitives": [
        {
          "attributes": {
            "NORMAL": 1,
            "POSITION": 0,
            "TEXCOORD_0": 2
          },
          "indices": 3,
          "material": 0,
          "mode": 4
        }
      ]
    },
    {
      "name": "Object_1",
      "primitives": [
        {
          "attributes": {
            "NORMAL": 5,
            "POSITION": 4,
            "TEXCOORD_0": 6
          },
          "indices": 7,
          "material": 0,
          "mode": 4
        }
      ]
    },
    {
      "name": "Object_2",
      "primitives": [
        {
          "attributes": {
            "NORMAL": 9,
            "POSITION": 8,
            "TEXCOORD_0": 10
          },
          "indices": 11,
          "material": 0,
          "mode": 4
        }
      ]
    },
    {
      "name": "Object_3",
      "primitives": [
        {
          "attributes": {
            "NORMAL": 13,
            "POSITION": 12,
            "TEXCOORD_0": 14
          },
          "indices": 15,
          "material": 0,
          "mode": 4
        }
      ]
    },
    {
      "name": "Object_4",
      "primitives": [
        {
          "attributes": {
            "NORMAL": 17,
            "POSITION": 16,
            "TEXCOORD_0": 18
          },
          "indices": 19,
          "material": 0,
          "mode": 4
        }
      ]
    },
    {
      "name": "Object_5",
      "primitives": [
        {
          "attributes": {
            "NORMAL": 21,
            "POSITION": 20,
            "TEXCOORD_0": 22
          },
          "indices": 23,
          "material": 0,
          "mode": 4
        }
      ]
    }
  ],
  "nodes": [
    {
      "children": [
        1
      ],
      "matrix": [
        1.0,
        0.0,
        0.0,
        0.0,
        0.0,
        2.220446049250313e-16,
        -1.0,
        0.0,
        0.0,
        1.0,
        2.220446049250313e-16,
        0.0,
        0.0,
        0.0,
        0.0,
        1.0
      ],
      "name": "Sketchfab_model"
    },
    {
      "children": [
        2
      ],
      "name": "root"
    },
    {
      "children": [
        3
      ],
      "matrix": [
        1.0,
        0.0,
        0.0,
        0.0,
        0.0,
        2.220446049250313e-16,
        1.0,
        0.0,
        0.0,
        -1.0,
        2.220446049250313e-16,
        0.0,
        0.0,
        0.0,
        0.0,
        1.0
      ],
      "name": "GLTF_SceneRootNode"
    },
    {
      "children": [
        4,
        5
      ],
      "matrix": [
        0.763367392030902,
        -0.7116320066250013,
        0.3895716689736303,
        0.0,
        0.7096446382223233,
        0.3264684424492982,
        -0.7941906678267655,
        0.0,
        0.39318022020739246,
        0.7924103839347956,
        0.6770606111760328,
        0.0,
        -2.962388038635254,
        2.731334924697876,
        5.341590404510498,
        1.0
      ],
      "name": "Base_5"
    },
    {
      "mesh": 0,
      "name": "Object_4"
    },
    {
      "children": [
        6,
        7
      ],
      "matrix": [
        0.40195319837674504,
        0.9096211401676269,
        -0.10499051230873943,
        0.0,
        -0.8525827163017943,
        0.41361581096018896,
        0.31941301286453494,
        0.0,
        0.3339705648379201,
        -0.038875985953950226,
        0.9417814606042895,
        0.0,
        0.0,
        5.109705924987793,
        0.0,
        1.0
      ],
      "name": "Arm 1_4"
    },
    {
      "mesh": 1,
      "name": "Object_6"
    },
    {
      "children": [
        8,
        9
      ],
      "matrix": [
        -0.2556135411941227,
        -0.9667790427797865,
        0.0,
        0.0,
        0.9667790427797865,
        -0.2556135411941227,
        0.0,
        0.0,
        0.0,
        0.0,
        1.0,
        0.0,
        0.0,
        4.348701000213623,
        1.9669532775878906e-05,
        1.0
      ],
      "name": "Arm 2_3"
    },
    {
      "mesh": 2,
      "name": "Object_8"
    },
    {
      "children": [
        10,
        11,
        13
      ],
      "matrix": [
        0.4122468944825787,
        0.0,
        -0.9110721694736754,
        0.0,
        0.0,
        1.0,
        0.0,
        0.0,
        0.9110721694736754,
        0.0,
        0.4122468944825787,
        0.0,
        0.0,
        4.8142852783203125,
        -1.9431114196777344e-05,
        1.0
      ],
      "name": "Wrist_2"
    },
    {
      "mesh": 3,
      "name": "Object_10"
    },
    {
      "children": [
        12
      ],
      "matrix": [
        0.999095025769146,
        -0.04253386278425053,
        -0.0,
        0.0,
        0.04253386278425053,
        0.999095025769146,
        0.0,
        0.0,
        0.0,
        0.0,
        1.0,
        0.0,
        -1.2933281660079956,
        1.6921148300170898,
        0.0,
        1.0
      ],
      "name": "Claw 1_0"
    },
    {
      "mesh": 4,
      "name": "Object_12"
    },
    {
      "children": [
        14
      ],
      "matrix": [
        0.9998444854749627,
        0.017635330031134797,
        0.0,
        0.0,
        -0.017635330031134797,
        0.9998444854749627,
        0.0,
        0.0,
        0.0,
        0.0,
        1.0,
        0.0,
        1.2933285236358643,
        1.6921143531799316,
        0.0,
        1.0
      ],
      "name": "Claw 2_1"
    },
    {
      "mesh": 5,
      "name": "Object_14"
    }
  ],
  "scene": 0,
  "scenes": [
    {
      "name": "Sketchfab_Scene",
      "nodes": [
        0
      ]
    }
  ]
}
